<svg width="32" height="32" viewBox="0 0 32 32" fill="none" xmlns="http://www.w3.org/2000/svg">
<path fill-rule="evenodd" clip-rule="evenodd" d="M24.5376 31.9809H11.5652C11.4152 31.9809 11.3027 31.9247 11.2277 31.7935C11.1715 31.681 11.1715 31.5498 11.2277 31.4186L13.4023 27.6505C13.4773 27.5193 13.5898 27.4443 13.7397 27.4443H22.3631C22.4943 27.4443 22.6255 27.5193 22.6817 27.6505L24.8563 31.3998C24.8938 31.4561 24.9126 31.531 24.9126 31.606C24.9126 31.8122 24.7438 31.9809 24.5376 31.9809ZM12.2025 31.2311H23.8815L22.1381 28.1942H13.9459L12.2025 31.2311Z" fill="#869DA8"/>
<path fill-rule="evenodd" clip-rule="evenodd" d="M17.4707 25.1199C15.0524 25.1199 12.7466 24.2201 10.9657 22.5516C9.20353 20.902 8.13499 18.6712 7.96627 16.2716C7.94752 16.0654 8.11624 15.8967 8.32245 15.8779C8.52866 15.8592 8.69738 16.0279 8.71612 16.2341C9.03481 20.7895 12.8966 24.37 17.4707 24.37C22.326 24.37 26.2627 20.4333 26.2627 15.5968C26.2627 11.96 24.0694 8.75434 20.6763 7.42335C20.4888 7.34836 20.3951 7.12341 20.4701 6.93594C20.5451 6.74848 20.7513 6.636 20.9575 6.71099C22.7196 7.4046 24.2193 8.60437 25.3066 10.1603C26.4127 11.7725 27.0126 13.6471 27.0126 15.5968C27.0126 20.8457 22.7384 25.1199 17.4707 25.1199Z" fill="#869DA8"/>
<path fill-rule="evenodd" clip-rule="evenodd" d="M19.6848 28.1941H16.4042C16.198 28.1941 16.0293 28.0442 16.0293 27.8192V24.6886C16.0293 24.4823 16.198 24.3136 16.4042 24.3136C16.6104 24.3136 16.7792 24.4823 16.7792 24.6886V27.4443H19.3099V24.4823C19.3099 24.2761 19.4786 24.1074 19.6848 24.1074C19.891 24.1074 20.0598 24.2761 20.0598 24.4823V27.8192C20.0598 28.0442 19.891 28.1941 19.6848 28.1941Z" fill="#869DA8"/>
<path fill-rule="evenodd" clip-rule="evenodd" d="M11.3226 16.6278H5.36125C5.15505 16.6278 4.98633 16.4591 4.98633 16.2529C4.98633 16.0466 5.15505 15.8779 5.36125 15.8779H11.3226C11.5288 15.8779 11.6975 16.0466 11.6975 16.2529C11.6975 16.4591 11.5288 16.6278 11.3226 16.6278Z" fill="#869DA8"/>
<path fill-rule="evenodd" clip-rule="evenodd" d="M15.2059 13.0667C15.1122 13.0667 15.0185 13.0292 14.9435 12.9542L11.6066 9.61734C11.5316 9.54235 11.4941 9.44862 11.4941 9.35489C11.4941 9.26116 11.5316 9.16742 11.6066 9.09244L19.1989 1.50017C19.2551 1.44393 19.3676 1.3877 19.4613 1.3877C19.5551 1.3877 19.6488 1.44393 19.7238 1.50017L23.0419 4.83702C23.1919 4.98699 23.1919 5.21195 23.0419 5.36192L15.4684 12.9542C15.3934 13.0292 15.2996 13.0667 15.2059 13.0667ZM12.4127 9.35489L15.2059 12.1481L22.2545 5.09947L19.4613 2.30627L12.4127 9.35489Z" fill="#869DA8"/>
<path fill-rule="evenodd" clip-rule="evenodd" d="M22.0261 4.70533C21.9324 4.70533 21.8199 4.66784 21.7449 4.59285L19.9453 2.7932C19.8891 2.73697 19.8516 2.62449 19.8516 2.53076C19.8516 2.43702 19.8891 2.34329 19.9453 2.26831L22.1011 0.112478C22.1761 0.0374927 22.2698 0 22.3823 0C22.4761 0 22.5698 0.0374927 22.6448 0.112478L24.4444 1.91213C24.5007 1.98711 24.5569 2.08084 24.5569 2.17458C24.5569 2.28705 24.5007 2.38079 24.4444 2.43702L22.2886 4.59285C22.2136 4.66784 22.1199 4.70533 22.0261 4.70533ZM20.7514 2.53076L22.0261 3.80551L23.6383 2.17458L22.3823 0.899824L20.7514 2.53076Z" fill="#869DA8"/>
<path fill-rule="evenodd" clip-rule="evenodd" d="M12.4109 14.5842C12.3172 14.5842 12.2234 14.5467 12.1485 14.4718L10.3488 12.6721C10.2738 12.5971 10.2363 12.5034 10.2363 12.4097C10.2363 12.3159 10.2738 12.2222 10.3488 12.1472L12.5046 9.99138C12.6546 9.84141 12.8983 9.84141 13.0295 9.99138L14.8292 11.791C14.9042 11.866 14.9417 11.9598 14.9417 12.0535C14.9417 12.1472 14.9042 12.2409 14.8292 12.3159L12.6921 14.4718C12.6171 14.5467 12.5046 14.5842 12.4109 14.5842ZM11.1549 12.4097L12.4109 13.6844L14.0418 12.0535L12.7671 10.7787L11.1549 12.4097Z" fill="#869DA8"/>
</svg>
