<svg width="70" height="70" viewBox="0 0 70 70" fill="none" xmlns="http://www.w3.org/2000/svg">
<path fill-rule="evenodd" clip-rule="evenodd" d="M54.8856 61.1773H10.5586C10.1061 61.1773 9.73828 60.8109 9.73828 60.3584V9.64258C9.73828 9.19004 10.1061 8.82227 10.5586 8.82227H54.8856C55.3381 8.82227 55.7059 9.19004 55.7059 9.64258V28.4414C55.7059 28.7094 55.5746 28.9596 55.3559 29.1127L52.1402 31.3645C51.9816 31.4752 51.7902 31.5258 51.5988 31.5107L48.2588 31.2168L46.841 34.2561C46.7604 34.4311 46.6195 34.5705 46.4459 34.6525L43.4066 36.0689L43.6992 39.409C43.7156 39.6018 43.665 39.7932 43.5543 39.9504L41.6307 42.6971L43.5543 45.4438C43.6637 45.601 43.7156 45.7924 43.6992 45.9852L43.4066 49.3252L46.4445 50.7416C46.6195 50.8236 46.7604 50.9631 46.841 51.1381L48.2588 54.176L51.5988 53.8848C51.7902 53.8684 51.9816 53.9189 52.1402 54.0297L55.3559 56.2815C55.5746 56.4346 55.7059 56.6848 55.7059 56.9527V60.3584C55.7059 60.8109 55.3381 61.1773 54.8856 61.1773ZM11.3775 59.5381H54.0666V57.3793L51.4443 55.5432L47.8295 55.859C47.4863 55.8877 47.1609 55.7018 47.016 55.3887L45.482 52.1006L42.1939 50.568C41.8822 50.4217 41.6936 50.0977 41.7236 49.7531L42.0395 46.1397L39.9586 43.1674C39.7617 42.8844 39.7617 42.5084 39.9586 42.2268L42.0395 39.2545L41.7236 35.641C41.6936 35.2979 41.8822 34.9725 42.1939 34.8262L45.482 33.2936L47.016 30.0041C47.1609 29.6924 47.4863 29.5037 47.8295 29.5352L51.4443 29.851L54.0666 28.0148V10.4615H11.3775V59.5381Z" fill="#F4F4F4"/>
<path fill-rule="evenodd" clip-rule="evenodd" d="M48.0305 19.3756H17.4205C16.968 19.3756 16.6016 19.0092 16.6016 18.5566C16.6016 18.1041 16.968 17.7363 17.4205 17.7363H48.0305C48.483 17.7363 48.8494 18.1041 48.8494 18.5566C48.8494 19.0092 48.483 19.3756 48.0305 19.3756Z" fill="#F4F4F4"/>
<path fill-rule="evenodd" clip-rule="evenodd" d="M48.0305 27.5982H17.4205C16.968 27.5982 16.6016 27.2305 16.6016 26.7779C16.6016 26.3254 16.968 25.959 17.4205 25.959H48.0305C48.483 25.959 48.8494 26.3254 48.8494 26.7779C48.8494 27.2305 48.483 27.5982 48.0305 27.5982Z" fill="#F4F4F4"/>
<path fill-rule="evenodd" clip-rule="evenodd" d="M43.7648 35.8209H17.4219C16.9693 35.8209 16.6016 35.4531 16.6016 35.0006C16.6016 34.548 16.9693 34.1816 17.4219 34.1816H43.7648C44.2174 34.1816 44.5838 34.548 44.5838 35.0006C44.5838 35.4531 44.2174 35.8209 43.7648 35.8209Z" fill="#F4F4F4"/>
<path fill-rule="evenodd" clip-rule="evenodd" d="M41.0018 44.0416H17.4219C16.9693 44.0416 16.6016 43.6752 16.6016 43.2227C16.6016 42.7701 16.9693 42.4023 17.4219 42.4023H41.0018C41.4543 42.4023 41.8207 42.7701 41.8207 43.2227C41.8207 43.6752 41.4543 44.0416 41.0018 44.0416Z" fill="#F4F4F4"/>
<path fill-rule="evenodd" clip-rule="evenodd" d="M46.0166 52.2633H17.4219C16.9693 52.2633 16.6016 51.8969 16.6016 51.4443C16.6016 50.9918 16.9693 50.624 17.4219 50.624H46.0166C46.4691 50.624 46.8356 50.9918 46.8356 51.4443C46.8356 51.8969 46.4691 52.2633 46.0166 52.2633Z" fill="#F4F4F4"/>
<path fill-rule="evenodd" clip-rule="evenodd" d="M26.2082 68.8626C26.1385 68.8626 26.066 68.853 25.9963 68.8339C25.7871 68.7778 25.608 68.6411 25.4986 68.4524L21.0621 60.7675C20.9158 60.5145 20.9158 60.2015 21.0621 59.9485C21.2084 59.6956 21.4791 59.5384 21.7717 59.5384H39.5191C39.8896 59.5384 40.215 59.7872 40.3107 60.1468C40.4064 60.505 40.2506 60.8823 39.9293 61.0683L26.6184 68.7519C26.4926 68.8257 26.3518 68.8626 26.2082 68.8626ZM23.1922 61.1776L26.509 66.9226L36.4607 61.1776H23.1922ZM10.5607 41.7581C10.2723 41.7581 10.0002 41.6063 9.85117 41.3479L0.141402 24.5315C-0.0855514 24.1392 0.0498002 23.6388 0.440816 23.4118L10.1506 17.8063C10.4049 17.6601 10.7166 17.6601 10.9695 17.8063C11.2238 17.9526 11.3797 18.2233 11.3797 18.5159V40.9392C11.3797 41.3097 11.1309 41.6337 10.7727 41.7308C10.7016 41.7485 10.6305 41.7581 10.5607 41.7581ZM1.9707 24.4222L9.74043 37.8808V19.9351L1.9707 24.4222ZM43.6795 10.4618C43.6781 10.4618 43.6768 10.4618 43.6768 10.4618H25.9293C25.5588 10.4618 25.2348 10.213 25.1377 9.85478C25.042 9.49658 25.1992 9.11787 25.5205 8.9333L38.8301 1.24697C39.0187 1.13896 39.2416 1.10888 39.4521 1.16631C39.6613 1.22236 39.8404 1.35908 39.9498 1.54775L44.3549 9.17939C44.4465 9.31064 44.4984 9.4706 44.4984 9.64287C44.4984 10.0954 44.132 10.4618 43.6795 10.4618ZM28.9877 8.82256H42.2576L38.9394 3.07627L28.9877 8.82256Z" fill="#F4F4F4"/>
<path fill-rule="evenodd" clip-rule="evenodd" d="M53.0599 46.854C52.8507 46.854 52.6401 46.7747 52.4802 46.6147C52.1603 46.2948 52.1603 45.7753 52.4802 45.4554L59.1575 38.778C59.4774 38.4581 59.997 38.4581 60.3155 38.778C60.6368 39.0993 60.6368 39.6175 60.3155 39.9374L53.6396 46.6147C53.4796 46.7747 53.2704 46.854 53.0599 46.854Z" fill="#F4F4F4"/>
<path fill-rule="evenodd" clip-rule="evenodd" d="M53.0558 46.8542C52.8466 46.8542 52.636 46.7749 52.4761 46.6149L49.4587 43.5976C49.1388 43.2776 49.1388 42.7581 49.4587 42.4382C49.7786 42.1183 50.2981 42.1183 50.6181 42.4382L53.6354 45.4556C53.9554 45.7755 53.9554 46.295 53.6354 46.6149C53.4755 46.7749 53.2663 46.8542 53.0558 46.8542Z" fill="#F4F4F4"/>
<path fill-rule="evenodd" clip-rule="evenodd" d="M54.8885 52.3043C49.5906 52.3043 45.2812 47.9936 45.2812 42.6971C45.2812 37.3992 49.5906 33.0898 54.8885 33.0898C60.185 33.0898 64.4943 37.3992 64.4943 42.6971C64.4943 47.9949 60.185 52.3043 54.8885 52.3043ZM54.8885 34.7291C50.4943 34.7291 46.9191 38.3043 46.9191 42.6971C46.9191 47.0912 50.4943 50.665 54.8885 50.665C59.2812 50.665 62.8551 47.0912 62.8551 42.6971C62.8551 38.3043 59.2812 34.7291 54.8885 34.7291Z" fill="#F4F4F4"/>
<path fill-rule="evenodd" clip-rule="evenodd" d="M54.8885 57.7727C54.723 57.7727 54.559 57.7235 54.4182 57.6237L51.4459 55.5428L47.8311 55.8586C47.4879 55.8874 47.1625 55.7014 47.0176 55.3897L45.4836 52.1002L42.1955 50.5676C41.8838 50.4213 41.6951 50.0959 41.7252 49.7528L42.041 46.1393L39.9602 43.167C39.7633 42.884 39.7633 42.5081 39.9602 42.2264L42.041 39.2542L41.7252 35.6407C41.6951 35.2975 41.8838 34.9721 42.1955 34.8258L45.4836 33.2932L47.0176 30.0038C47.1625 29.692 47.4879 29.5034 47.8311 29.5348L51.4459 29.8506L54.4182 27.7698C54.6998 27.5715 55.0758 27.5715 55.3574 27.7698L58.3297 29.8506L61.9445 29.5348C62.2891 29.5047 62.6131 29.692 62.758 30.0038L64.292 33.2932L67.5801 34.8258C67.8932 34.9721 68.0805 35.2975 68.0504 35.6407L67.7346 39.2542L69.8154 42.2264C70.0123 42.5081 70.0123 42.884 69.8154 43.167L67.7346 46.1393L68.0504 49.7528C68.0805 50.0959 67.8932 50.4213 67.5801 50.5676L64.292 52.1002L62.758 55.3883C62.6131 55.7014 62.2904 55.8874 61.9445 55.8586L58.3297 55.5428L55.3574 57.6237C55.2166 57.7221 55.0525 57.7727 54.8885 57.7727ZM51.6715 53.8803C51.8396 53.8803 52.0037 53.9323 52.1418 54.0293L54.8885 55.9516L57.6338 54.0293C57.791 53.9186 57.9824 53.868 58.1752 53.8844L61.5152 54.1756L62.933 51.1377C63.0137 50.9627 63.1545 50.8219 63.3281 50.7413L66.3674 49.3249L66.0748 45.9848C66.0584 45.792 66.109 45.6006 66.2197 45.4434L68.1434 42.6967L66.2197 39.9501C66.109 39.7928 66.0584 39.6014 66.0748 39.4086L66.3674 36.0686L63.3281 34.6522C63.1545 34.5715 63.0137 34.4307 62.933 34.2557L61.5152 31.2178L58.1752 31.509C57.9824 31.5268 57.791 31.4749 57.6338 31.3641L54.8885 29.4418L52.1418 31.3641C51.9832 31.4749 51.7918 31.5268 51.6004 31.509L48.2604 31.2178L46.8426 34.2557C46.7619 34.4307 46.6211 34.5715 46.4475 34.6522L43.4082 36.0686L43.7008 39.4086C43.7172 39.6014 43.6666 39.7928 43.5559 39.9501L41.6322 42.6967L43.5559 45.4434C43.6652 45.6006 43.7172 45.792 43.7008 45.9848L43.4082 49.3249L46.4475 50.7413C46.6211 50.8233 46.7619 50.9627 46.8426 51.1377L48.2604 54.1756L51.6004 53.8844C51.6236 53.8817 51.6482 53.8803 51.6715 53.8803Z" fill="#F4F4F4"/>
</svg>
