<svg width="32" height="32" viewBox="0 0 32 32" fill="none" xmlns="http://www.w3.org/2000/svg">
<path fill-rule="evenodd" clip-rule="evenodd" d="M23.0055 30.1487H6.90867C5.63992 30.1487 4.60742 29.2343 4.60742 28.1099V5.1618C4.60742 4.03742 5.63992 3.12305 6.90867 3.12305H10.503C10.7099 3.12305 10.878 3.29117 10.878 3.49805C10.878 3.70492 10.7099 3.87305 10.503 3.87305H6.90867C6.05305 3.87305 5.35742 4.45117 5.35742 5.1618V28.1099C5.35742 28.8205 6.05305 29.3987 6.90867 29.3987H23.0055C23.103 29.3987 23.2005 29.3912 23.2955 29.3755C23.5005 29.343 23.6918 29.4818 23.7249 29.6868C23.7574 29.8912 23.6187 30.083 23.4143 30.1162C23.2799 30.1374 23.1424 30.1487 23.0055 30.1487ZM24.9318 28.1262C24.7249 28.1262 24.5568 27.9587 24.5568 27.7512V5.1618C24.5568 4.45117 23.8612 3.87305 23.0055 3.87305H19.4118C19.2043 3.87305 19.0368 3.70492 19.0368 3.49805C19.0368 3.29117 19.2043 3.12305 19.4118 3.12305H23.0055C24.2743 3.12305 25.3068 4.03805 25.3068 5.1618V27.7512C25.3068 27.9587 25.1387 28.1262 24.9318 28.1262Z" fill="#869DA8"/>
<path fill-rule="evenodd" clip-rule="evenodd" d="M18.8964 5.83328H11.0195C10.5283 5.83328 10.1289 5.46516 10.1289 5.01328V2.51766C10.1289 2.06516 10.5283 1.69703 11.0195 1.69703H13.0189C13.0389 0.760156 13.9008 0.00390625 14.9583 0.00390625C16.0152 0.00390625 16.8777 0.760156 16.8977 1.69703H18.8964C19.3877 1.69703 19.787 2.06516 19.787 2.51766V5.01328C19.787 5.46516 19.3877 5.83328 18.8964 5.83328ZM11.0195 2.44703C10.9289 2.44703 10.8789 2.50016 10.8789 2.51766V5.01328C10.8789 5.03078 10.9289 5.08391 11.0195 5.08391H18.8964C18.9877 5.08391 19.0377 5.03078 19.0377 5.01328V2.51766C19.0377 2.50016 18.9877 2.44703 18.8964 2.44703H16.4727C16.3539 2.44703 16.242 2.39078 16.1714 2.29578C16.1008 2.20078 16.0795 2.07766 16.1133 1.96391C16.1364 1.88766 16.1483 1.80891 16.1483 1.73016C16.1483 1.19203 15.6145 0.753906 14.9583 0.753906C14.302 0.753906 13.7683 1.19203 13.7683 1.73016C13.7683 1.80891 13.7802 1.88766 13.8027 1.96391C13.837 2.07766 13.8152 2.20016 13.7445 2.29578C13.6739 2.39078 13.5627 2.44703 13.4439 2.44703H11.0195Z" fill="#869DA8"/>
<path fill-rule="evenodd" clip-rule="evenodd" d="M20.6372 8.34606H8.38281C8.17594 8.34606 8.00781 8.17856 8.00781 7.97106C8.00781 7.76418 8.17594 7.59668 8.38281 7.59668H20.6372C20.8441 7.59668 21.0122 7.76418 21.0122 7.97106C21.0122 8.17856 20.8441 8.34606 20.6372 8.34606Z" fill="#869DA8"/>
<path fill-rule="evenodd" clip-rule="evenodd" d="M17.4022 10.6455H8.13281C7.92531 10.6455 7.75781 10.478 7.75781 10.2705C7.75781 10.0636 7.92531 9.89551 8.13281 9.89551H17.4022C17.6091 9.89551 17.7766 10.0636 17.7766 10.2705C17.7766 10.478 17.6091 10.6455 17.4022 10.6455Z" fill="#869DA8"/>
<path fill-rule="evenodd" clip-rule="evenodd" d="M18.9445 12.9443H8.15953C7.95266 12.9443 7.78516 12.7762 7.78516 12.5693C7.78516 12.3625 7.95266 12.1943 8.15953 12.1943H18.9445C19.1514 12.1943 19.3189 12.3625 19.3189 12.5693C19.3189 12.7762 19.1514 12.9443 18.9445 12.9443Z" fill="#869DA8"/>
<path fill-rule="evenodd" clip-rule="evenodd" d="M16.4828 28.2453C14.5709 28.2453 12.7734 27.5003 11.4216 26.1484C8.63031 23.3578 8.63031 18.8166 11.4216 16.0259C12.7734 14.6741 14.5709 13.9297 16.4828 13.9297C18.3947 13.9297 20.1922 14.6741 21.5441 16.0259C24.3347 18.8166 24.3347 23.3578 21.5441 26.1484C20.1922 27.5003 18.3947 28.2453 16.4828 28.2453ZM16.4828 14.6797C14.7709 14.6797 13.1616 15.3459 11.9516 16.5559C9.45281 19.0547 9.45281 23.1203 11.9516 25.6184C13.1616 26.8291 14.7709 27.4953 16.4828 27.4953C18.1941 27.4953 19.8034 26.8291 21.0134 25.6184C23.5122 23.1203 23.5122 19.0547 21.0134 16.5559C19.8034 15.3459 18.1941 14.6797 16.4828 14.6797Z" fill="#869DA8"/>
<path fill-rule="evenodd" clip-rule="evenodd" d="M16.4826 26.6305C15.002 26.6305 13.6101 26.0537 12.5632 25.0068C11.5163 23.9599 10.9395 22.568 10.9395 21.0874C10.9395 19.6074 11.5163 18.2149 12.5632 17.168C13.6101 16.1212 15.002 15.5449 16.4826 15.5449C17.9632 15.5449 19.3551 16.1212 20.402 17.168C22.5626 19.3293 22.5626 22.8462 20.402 25.0068C19.3551 26.0537 17.9632 26.6305 16.4826 26.6305ZM16.4826 16.2949C15.202 16.2949 13.9988 16.793 13.0932 17.6987C12.1882 18.6037 11.6895 19.8074 11.6895 21.0874C11.6895 22.368 12.1882 23.5712 13.0932 24.4768C13.9988 25.3818 15.202 25.8805 16.4826 25.8805C17.7626 25.8805 18.9663 25.3824 19.8713 24.4768C21.7401 22.608 21.7401 19.5674 19.8713 17.6987C18.9663 16.793 17.7626 16.2949 16.4826 16.2949Z" fill="#869DA8"/>
<path fill-rule="evenodd" clip-rule="evenodd" d="M22.8995 27.8785C22.8033 27.8785 22.7077 27.8422 22.6339 27.7685L21.0139 26.1485C20.8677 26.0022 20.8677 25.7647 21.0145 25.6185C21.1608 25.4722 21.3983 25.4722 21.5445 25.6185L23.1645 27.2385C23.3108 27.3847 23.3108 27.6222 23.1645 27.7685C23.0914 27.8422 22.9952 27.8785 22.8995 27.8785Z" fill="#869DA8"/>
<path fill-rule="evenodd" clip-rule="evenodd" d="M25.4269 31.9947C25.2012 31.9947 24.9887 31.9072 24.83 31.7478L22.0744 28.9928C21.9156 28.8334 21.8281 28.6216 21.8281 28.3959C21.8281 28.1703 21.9156 27.9584 22.0744 27.7991L23.1975 26.6766C23.3562 26.5172 23.5681 26.4297 23.7937 26.4297C24.02 26.4297 24.2319 26.5172 24.3906 26.6766L27.1462 29.4322C27.305 29.5909 27.3925 29.8028 27.3925 30.0284C27.3925 30.2547 27.305 30.4666 27.1462 30.6253L26.0237 31.7478C25.8644 31.9072 25.6525 31.9947 25.4269 31.9947ZM23.7937 27.1797C23.7794 27.1797 23.7512 27.1834 23.7275 27.2066L22.605 28.3291C22.5687 28.3653 22.5687 28.4266 22.605 28.4628L25.36 31.2178C25.3837 31.2416 25.4119 31.2447 25.4269 31.2447C25.4412 31.2447 25.47 31.2416 25.4931 31.2178L26.6156 30.0953C26.6394 30.0716 26.6425 30.0434 26.6425 30.0291C26.6425 30.0141 26.6394 29.9859 26.6156 29.9622L23.8606 27.2066C23.8369 27.1834 23.8087 27.1797 23.7937 27.1797Z" fill="#869DA8"/>
</svg>
