<svg width="32" height="32" viewBox="0 0 32 32" fill="none" xmlns="http://www.w3.org/2000/svg">
<path fill-rule="evenodd" clip-rule="evenodd" d="M12.0236 10.7385C12.0867 10.7385 12.1517 10.7229 12.2104 10.6885L15.2636 8.92598C15.4423 8.82285 15.5042 8.5941 15.4017 8.41473C14.1154 6.16473 14.0923 4.98223 14.0729 4.0316C14.0592 3.34973 14.0467 2.70535 13.5879 1.91098C12.9079 0.732851 11.6392 0.000976562 10.2773 0.000976562C9.61106 0.000976562 8.95169 0.178477 8.37106 0.513476C7.48794 1.02348 6.85606 1.8466 6.59169 2.83223C6.32794 3.81723 6.46356 4.8466 6.97356 5.72973C7.43231 6.52473 7.98356 6.85785 8.56731 7.21035C9.38106 7.70223 10.3936 8.3141 11.6992 10.5529C11.7686 10.6722 11.8942 10.7385 12.0236 10.7385ZM14.5686 8.46098L12.1554 9.8541C10.8442 7.70973 9.80106 7.07973 8.95544 6.56848C8.39231 6.22848 7.98544 5.98223 7.62294 5.35473C7.21294 4.64535 7.10419 3.81785 7.31669 3.0266C7.52856 2.23473 8.03669 1.57285 8.74606 1.16285C9.21294 0.893477 9.74231 0.750977 10.2773 0.750977C11.3723 0.750977 12.3917 1.33973 12.9386 2.28598C13.3004 2.91348 13.3098 3.3891 13.3229 4.0466C13.3429 5.03473 13.3673 6.25285 14.5686 8.46098Z" fill="#869DA8"/>
<path fill-rule="evenodd" clip-rule="evenodd" d="M9.7358 6.04801C9.86205 6.04801 9.9858 5.98426 10.0564 5.86864C10.1639 5.69239 10.1089 5.46114 9.93205 5.35301C9.87642 5.31926 9.81955 5.28551 9.7633 5.25114C9.60392 5.15614 9.43955 5.05801 9.29767 4.95489C9.14392 4.84364 9.05642 4.74551 8.96142 4.58176C8.54142 3.85426 8.79142 2.92051 9.51892 2.50051C9.6983 2.39676 9.76017 2.16739 9.65642 1.98801C9.55267 1.80926 9.3233 1.74739 9.14392 1.85114C8.0583 2.47801 7.68517 3.87114 8.31205 4.95676C8.45955 5.21239 8.61767 5.38801 8.85705 5.56176C9.0258 5.68426 9.20517 5.79176 9.3783 5.89489C9.43267 5.92801 9.48705 5.96051 9.5408 5.99301C9.60205 6.03051 9.66955 6.04801 9.7358 6.04801Z" fill="#869DA8"/>
<path fill-rule="evenodd" clip-rule="evenodd" d="M12.5516 13.1064C12.7203 13.1064 12.8872 13.062 13.0335 12.9776L16.831 10.7845C17.2928 10.5182 17.4516 9.92574 17.1853 9.46387L16.5797 8.41574C16.4078 8.11762 16.0866 7.93262 15.741 7.93262C15.5722 7.93262 15.4053 7.97699 15.2591 8.06137L11.461 10.2545C11.2378 10.3832 11.0785 10.5914 11.0116 10.8414C10.9441 11.0914 10.9785 11.352 11.1072 11.5751L11.7122 12.6239C11.8847 12.9214 12.206 13.1064 12.5516 13.1064ZM15.741 8.68262C15.8191 8.68262 15.8916 8.72387 15.9303 8.79074L16.536 9.83887C16.5641 9.88887 16.5716 9.94699 16.5566 10.0032C16.5416 10.0595 16.506 10.1064 16.4566 10.1351L12.6585 12.3282C12.6253 12.347 12.5897 12.3564 12.5516 12.3564C12.4728 12.3564 12.4003 12.3151 12.3622 12.2489L11.7566 11.2001C11.7278 11.1507 11.7203 11.092 11.736 11.0357C11.751 10.9795 11.7866 10.9326 11.836 10.9039L15.6341 8.71137C15.6672 8.69199 15.7028 8.68262 15.741 8.68262Z" fill="#869DA8"/>
<path fill-rule="evenodd" clip-rule="evenodd" d="M22.493 26.0517C22.6817 26.0517 22.868 26.0017 23.0317 25.9073C23.2811 25.763 23.4599 25.5298 23.5349 25.2505C23.6099 24.9711 23.5711 24.6798 23.4274 24.4305L23.0236 23.7311C23.1749 23.5867 23.2842 23.403 23.3405 23.1948C23.4205 22.8961 23.3799 22.5848 23.2255 22.3186L16.4455 10.5748C16.3961 10.4892 16.3142 10.4261 16.218 10.4005C16.1217 10.3748 16.0199 10.388 15.9336 10.438L13.1842 12.0255C13.0049 12.1286 12.9436 12.358 13.0467 12.5373L19.8267 24.2811C20.0324 24.6367 20.4167 24.858 20.8292 24.858C20.9386 24.858 21.0467 24.8423 21.1511 24.8117L21.5549 25.5117C21.7474 25.8448 22.1067 26.0517 22.493 26.0517ZM15.9836 11.2748L22.5761 22.6936C22.6299 22.7867 22.6442 22.8955 22.6161 23.0005C22.588 23.1055 22.5211 23.193 22.428 23.2467L22.3405 23.2973C22.2542 23.3467 22.1917 23.4286 22.1655 23.5248C22.1399 23.6211 22.1536 23.7236 22.203 23.8098L22.778 24.8055C22.8217 24.8817 22.833 24.9705 22.8105 25.0567C22.7874 25.1423 22.733 25.2142 22.6567 25.258C22.6061 25.2867 22.5511 25.3017 22.493 25.3017C22.3736 25.3017 22.263 25.2386 22.2042 25.1367L21.6292 24.1411C21.5799 24.0548 21.498 23.9917 21.4017 23.9661C21.3061 23.9405 21.2036 23.9536 21.1174 24.0036L21.0299 24.0542C20.968 24.0898 20.9005 24.108 20.8292 24.108C20.6836 24.108 20.548 24.0305 20.4761 23.9061L13.8836 12.4873L15.9836 11.2748Z" fill="#869DA8"/>
<path fill-rule="evenodd" clip-rule="evenodd" d="M23.7992 31.9994C24.7611 31.9994 25.543 31.2169 25.543 30.255C25.543 29.835 25.1655 29.0763 24.4211 27.7325C24.2998 27.5144 24.1955 27.3262 24.133 27.2044C24.0692 27.0787 23.9398 27 23.7992 27C23.6586 27 23.5298 27.0787 23.4655 27.2044C23.403 27.3262 23.2986 27.515 23.1773 27.7337C22.4336 29.0763 22.0555 29.835 22.0555 30.2556C22.0555 31.2169 22.838 31.9994 23.7992 31.9994ZM23.7992 28.1581C24.1023 28.7056 24.7923 29.9619 24.793 30.255C24.793 30.8031 24.3473 31.2494 23.7992 31.2494C23.2511 31.2494 22.8055 30.8031 22.8055 30.255C22.8061 29.9619 23.4967 28.705 23.7992 28.1581Z" fill="#869DA8"/>
</svg>
