<svg width="32" height="32" viewBox="0 0 32 32" fill="none" xmlns="http://www.w3.org/2000/svg">
<path d="M27.363 15.7046H23.2368V7.15332C23.2362 6.56503 23.0022 6.00102 22.5862 5.58506C22.1701 5.1691 21.6061 4.93516 21.0178 4.93457H5.34399C4.75571 4.93516 4.19168 5.16909 3.77567 5.58505C3.35966 6.00101 3.12566 6.56501 3.125 7.1533V17.2295C3.12564 17.8177 3.3596 18.3817 3.77556 18.7977C4.19152 19.2136 4.7555 19.4476 5.34375 19.4482H7.34448V21.8711C7.34228 22.0734 7.40126 22.2717 7.51371 22.44C7.62615 22.6082 7.78681 22.7386 7.97461 22.8139C8.1003 22.8668 8.23523 22.8942 8.37158 22.8945C8.50481 22.894 8.63663 22.8671 8.75938 22.8153C8.88213 22.7635 8.99338 22.6879 9.08667 22.5928L12.2312 19.4482H16.186V23.4297C16.1864 23.8306 16.3458 24.2149 16.6293 24.4984C16.9128 24.7819 17.2971 24.9414 17.698 24.9419H23.0566L24.9534 26.8388C25.0249 26.9107 25.1099 26.9677 25.2036 27.0066C25.2972 27.0455 25.3976 27.0654 25.499 27.0654C25.6009 27.0653 25.7017 27.0452 25.7959 27.0063C25.9373 26.948 26.0582 26.8489 26.1432 26.7217C26.2281 26.5945 26.2734 26.4449 26.2732 26.2919V24.9419H27.363C27.7639 24.9414 28.1483 24.7819 28.4317 24.4984C28.7152 24.2149 28.8746 23.8306 28.875 23.4297V17.2168C28.8746 16.8159 28.7152 16.4315 28.4317 16.148C28.1483 15.8645 27.7639 15.705 27.363 15.7046ZM12.0759 18.6982C11.9765 18.6983 11.8811 18.7378 11.8108 18.8081L8.55639 22.0625C8.51854 22.1003 8.47032 22.1261 8.41783 22.1365C8.36535 22.1469 8.31095 22.1415 8.26151 22.1211C8.21207 22.1006 8.16982 22.0659 8.14009 22.0214C8.11036 21.9769 8.09449 21.9246 8.09448 21.8711V19.0732C8.09446 18.9738 8.05494 18.8784 7.98462 18.8081C7.9143 18.7378 7.81893 18.6983 7.71948 18.6982H5.34375C4.95434 18.6978 4.581 18.5429 4.30565 18.2676C4.0303 17.9922 3.87542 17.6189 3.875 17.2295V7.1533C3.87543 6.76386 4.03035 6.39049 4.30575 6.11513C4.58115 5.83977 4.95455 5.68492 5.34399 5.68455H21.0178C21.4073 5.68492 21.7807 5.83977 22.0561 6.11513C22.3315 6.39049 22.4864 6.76386 22.4868 7.1533V15.7046H17.698C17.2972 15.705 16.9129 15.8644 16.6294 16.1478C16.346 16.4312 16.1865 16.8154 16.186 17.2163V18.6982L12.0759 18.6982ZM28.125 23.4297C28.1248 23.6317 28.0445 23.8255 27.9016 23.9683C27.7588 24.1112 27.5651 24.1916 27.363 24.1919H25.8982C25.7987 24.1919 25.7034 24.2314 25.6331 24.3017C25.5627 24.372 25.5232 24.4674 25.5232 24.5669L25.4836 26.3086L23.4771 24.3017C23.4067 24.2314 23.3114 24.1919 23.2119 24.1919H17.698C17.4959 24.1916 17.3022 24.1112 17.1594 23.9683C17.0165 23.8254 16.9362 23.6317 16.936 23.4297V17.2163C16.9363 17.0143 17.0167 16.8207 17.1595 16.6779C17.3024 16.5351 17.496 16.4548 17.698 16.4546H27.363C27.5651 16.4548 27.7588 16.5352 27.9017 16.6781C28.0445 16.821 28.1248 17.0147 28.125 17.2168V23.4297Z" fill="#869DA8"/>
<path d="M17.7466 13.2139V11.168C17.7463 10.9476 17.6586 10.7364 17.5029 10.5806C17.3471 10.4248 17.1358 10.3372 16.9155 10.3369H15.0349V8.45606C15.0346 8.23574 14.947 8.02452 14.7912 7.86873C14.6354 7.71294 14.4242 7.62529 14.2038 7.625H12.158C11.9376 7.62529 11.7264 7.71294 11.5706 7.86873C11.4148 8.02452 11.3272 8.23574 11.3269 8.45606V10.3369H9.44628C9.22596 10.3372 9.01475 10.4249 8.85896 10.5806C8.70317 10.7364 8.61552 10.9476 8.61523 11.168V13.2139C8.61552 13.4342 8.70317 13.6454 8.85896 13.8012C9.01475 13.957 9.22596 14.0447 9.44628 14.0449H11.3269V15.9253C11.3272 16.1456 11.4148 16.3568 11.5706 16.5126C11.7264 16.6684 11.9376 16.7561 12.158 16.7564H14.2039C14.4242 16.7561 14.6354 16.6684 14.7912 16.5126C14.947 16.3568 15.0346 16.1456 15.0349 15.9253V14.0449H16.9155C17.1359 14.0446 17.3471 13.957 17.5029 13.8012C17.6586 13.6454 17.7463 13.4342 17.7466 13.2139ZM14.6599 13.2949C14.5605 13.295 14.4651 13.3345 14.3948 13.4048C14.3245 13.4751 14.2849 13.5705 14.2849 13.6699V15.9253C14.2849 15.936 14.2828 15.9465 14.2788 15.9563C14.2747 15.9662 14.2687 15.9751 14.2612 15.9826C14.2537 15.9902 14.2447 15.9961 14.2349 16.0002C14.225 16.0043 14.2145 16.0064 14.2039 16.0064H12.158C12.1473 16.0064 12.1368 16.0043 12.1269 16.0002C12.1171 15.9961 12.1082 15.9902 12.1006 15.9826C12.0931 15.9751 12.0871 15.9662 12.0831 15.9563C12.079 15.9465 12.0769 15.936 12.0769 15.9253V13.6699C12.0769 13.5705 12.0374 13.4751 11.967 13.4048C11.8967 13.3345 11.8014 13.2949 11.7019 13.2949H9.44628C9.43564 13.2949 9.4251 13.2928 9.41526 13.2888C9.40542 13.2847 9.39649 13.2787 9.38896 13.2712C9.38143 13.2637 9.37546 13.2547 9.37139 13.2449C9.36732 13.2351 9.36523 13.2245 9.36523 13.2139V11.168C9.36523 11.1573 9.36732 11.1468 9.37139 11.1369C9.37546 11.1271 9.38143 11.1182 9.38896 11.1106C9.39649 11.1031 9.40542 11.0971 9.41526 11.0931C9.4251 11.089 9.43564 11.0869 9.44628 11.0869H11.7019C11.8014 11.0869 11.8967 11.0474 11.967 10.977C12.0374 10.9067 12.0769 10.8114 12.0769 10.7119V8.45606C12.0769 8.44541 12.079 8.43487 12.0831 8.42503C12.0871 8.41519 12.0931 8.40626 12.1006 8.39873C12.1082 8.3912 12.1171 8.38523 12.1269 8.38116C12.1368 8.37709 12.1473 8.37499 12.158 8.375H14.2039C14.2145 8.37499 14.225 8.37709 14.2349 8.38116C14.2447 8.38523 14.2537 8.3912 14.2612 8.39873C14.2687 8.40625 14.2747 8.41519 14.2788 8.42503C14.2828 8.43487 14.2849 8.44541 14.2849 8.45606V10.7119C14.2849 10.8114 14.3245 10.9067 14.3948 10.977C14.4651 11.0474 14.5605 11.0869 14.6599 11.0869H16.9155C16.9262 11.0869 16.9367 11.089 16.9466 11.0931C16.9564 11.0971 16.9653 11.1031 16.9729 11.1106C16.9804 11.1182 16.9864 11.1271 16.9904 11.1369C16.9945 11.1468 16.9966 11.1573 16.9966 11.168V13.2139C16.9966 13.2245 16.9945 13.2351 16.9904 13.2449C16.9864 13.2547 16.9804 13.2637 16.9729 13.2712C16.9653 13.2787 16.9564 13.2847 16.9466 13.2888C16.9367 13.2929 16.9262 13.2949 16.9155 13.2949H14.6599Z" fill="#869DA8"/>
<path d="M25.9736 18.5938H19.0859C18.9865 18.5938 18.8911 18.6333 18.8208 18.7036C18.7504 18.7739 18.7109 18.8693 18.7109 18.9688C18.7109 19.0682 18.7504 19.1636 18.8208 19.2339C18.8911 19.3042 18.9865 19.3438 19.0859 19.3438H25.9736C26.0731 19.3438 26.1685 19.3042 26.2388 19.2339C26.3091 19.1636 26.3486 19.0682 26.3486 18.9688C26.3486 18.8693 26.3091 18.7739 26.2388 18.7036C26.1685 18.6333 26.0731 18.5938 25.9736 18.5938Z" fill="#869DA8"/>
<path d="M25.9736 21.3018H19.0859C18.9865 21.3018 18.8911 21.3413 18.8208 21.4116C18.7504 21.4819 18.7109 21.5773 18.7109 21.6768C18.7109 21.7762 18.7504 21.8716 18.8208 21.9419C18.8911 22.0122 18.9865 22.0518 19.0859 22.0518H25.9736C26.0731 22.0518 26.1685 22.0122 26.2388 21.9419C26.3091 21.8716 26.3486 21.7762 26.3486 21.6768C26.3486 21.5773 26.3091 21.4819 26.2388 21.4116C26.1685 21.3413 26.0731 21.3018 25.9736 21.3018Z" fill="#869DA8"/>
</svg>
