<svg width="32" height="32" viewBox="0 0 32 32" fill="none" xmlns="http://www.w3.org/2000/svg">
<g clip-path="url(#clip0_307_4849)">
<path fill-rule="evenodd" clip-rule="evenodd" d="M11.988 15.9077C11.427 15.9077 11.4196 15.0588 11.988 15.0588C12.549 15.0588 12.549 15.9077 11.988 15.9077ZM10.8069 21.6138C4.83506 21.6138 0 16.7788 0 10.8069C0 4.83506 4.83506 0 10.8069 0C16.7788 0 21.6138 4.83506 21.6138 10.8069C21.6138 13.5456 20.5952 16.1366 18.7423 18.137L21.1045 20.4992L22.4554 19.1483C22.6178 18.9785 22.8909 18.9785 23.0533 19.1483L31.8745 27.9695C32.0443 28.1319 32.0443 28.4051 31.8745 28.5748L28.5748 31.8745C28.4051 32.0443 28.1393 32.0443 27.9695 31.8745L19.1483 23.0533C18.9785 22.8909 18.9785 22.6178 19.1483 22.4554L20.4992 21.1045L18.137 18.7423C16.1366 20.5952 13.5456 21.6138 10.8069 21.6138ZM10.8069 0.848904C5.30011 0.848904 0.848904 5.3075 0.848904 10.8069C0.848904 16.3063 5.30011 20.7575 10.8069 20.7575C16.3063 20.7575 20.7575 16.3063 20.7575 10.8069C20.7575 5.3075 16.3063 0.848904 10.8069 0.848904ZM20.0489 22.7506L21.5031 24.2048L24.2048 21.5031L22.7506 20.0489L20.0489 22.7506ZM22.101 24.8101L28.2722 30.9739L29.3204 29.9257L23.1566 23.7546L22.101 24.8101ZM29.9257 29.3204L30.9739 28.2722L24.8028 22.101L23.7546 23.1566L29.9257 29.3204ZM8.96147 12.9403C7.61799 12.9403 7.82468 13.11 7.58846 11.3606C7.37439 11.272 7.17508 11.1539 6.98316 11.0136C5.24844 11.7296 5.66182 11.8773 4.5767 9.99492C4.46597 9.81038 4.51765 9.57416 4.68005 9.44129L5.64706 8.69573V8.00184C4.16332 6.85767 4.23714 7.28581 5.32964 5.40346C5.43299 5.21891 5.66182 5.13772 5.86113 5.21891L6.98316 5.68397C7.17508 5.54371 7.37439 5.43299 7.58846 5.33702C7.83944 3.47682 7.50726 3.75732 9.67751 3.75732C9.89158 3.75732 10.0761 3.91972 10.1056 4.12641L10.2607 5.33702C10.4747 5.43299 10.6814 5.54371 10.866 5.68397C12.6081 4.96793 12.1947 4.8203 13.2798 6.71003C13.5234 7.13818 12.9698 7.4113 12.5195 7.75824L17.0002 17.0888C17.2069 17.4505 16.9412 17.7605 16.6459 17.7605H7.32272C7.01269 17.7605 6.806 17.4284 6.93887 17.1479L8.96147 12.9403ZM11.6411 7.38177C11.7223 7.27105 12.2242 6.90934 12.3571 6.81338L11.9732 6.14902C10.0097 6.96101 11.1243 6.52549 9.73656 6.03829C9.58154 5.98662 9.47082 5.85375 9.45605 5.69873L9.30842 4.61361H8.54809C8.26759 6.71003 8.45213 5.53633 7.3301 6.49596C7.21199 6.59931 7.04221 6.62883 6.89458 6.56978L5.87589 6.14902L5.49942 6.81338C7.17508 8.10519 6.25236 7.35963 6.52549 8.80646C6.55502 8.96147 6.49596 9.12387 6.36309 9.21984L5.49942 9.89158L5.87589 10.5486C7.83944 9.73656 6.73218 10.1721 8.11995 10.6593C8.27497 10.711 8.37831 10.8438 8.40046 11.0062L8.54809 12.0913H9.36747L11.5968 7.44821L11.6411 7.38177ZM10.0318 12.6819C10.0244 12.6893 10.0171 12.704 10.0171 12.7188L8.00184 16.9043H15.9668L11.9806 8.61453L10.0318 12.6819ZM8.92457 9.84729C8.10519 9.84729 7.43345 9.17555 7.43345 8.34879C7.43345 7.52941 8.10519 6.85767 8.92457 6.85767C9.75132 6.85767 10.4231 7.52941 10.4231 8.34879C10.4231 9.17555 9.75132 9.84729 8.92457 9.84729ZM8.92457 7.70657C8.08304 7.70657 8.08304 8.991 8.92457 8.991C9.77347 8.991 9.77347 7.70657 8.92457 7.70657ZM11.9806 14.1582C11.7518 14.1582 11.5599 13.9663 11.5599 13.7301V10.9176C11.5599 10.3566 12.4088 10.3566 12.4088 10.9176V13.7301C12.4088 13.9663 12.2168 14.1582 11.9806 14.1582Z" fill="#869DA8"/>
</g>
<defs>
<clipPath id="clip0_307_4849">
<rect width="32" height="32" fill="white"/>
</clipPath>
</defs>
</svg>
