<svg width="167" height="57" viewBox="0 0 167 57" fill="none" xmlns="http://www.w3.org/2000/svg">
<g clip-path="url(#clip0_401_4933)">
<path d="M66.5859 22.4711V9.7207H68.5374V22.4711H66.5859Z" fill="#262626"/>
<path d="M76.876 22.5432L71.541 9.7207H73.7031L77.8166 19.7811L81.9301 9.7207H84.036L78.7222 22.5432H76.876Z" fill="#262626"/>
<path d="M86.9258 22.4708V9.72048H91.3061C93.0939 9.64732 94.8399 10.2883 96.1777 11.509C96.7796 12.1044 97.2584 12.8185 97.5855 13.6085C97.9125 14.3984 98.0811 15.248 98.0811 16.1065C98.0811 16.9649 97.9125 17.8146 97.5855 18.6045C97.2584 19.3945 96.7796 20.1085 96.1777 20.704C94.8389 21.9208 93.0917 22.5545 91.3061 22.4708H86.9258ZM88.8773 20.6319H91.1235C92.4426 20.717 93.7434 20.281 94.7597 19.4131C95.1993 18.9907 95.5444 18.4754 95.771 17.9026C95.9976 17.3298 96.1005 16.7133 96.0724 16.0957C96.1004 15.4791 95.9975 14.8637 95.7708 14.2921C95.5441 13.7205 95.1991 13.2064 94.7597 12.7855C93.7441 11.9156 92.4434 11.4771 91.1235 11.5595H88.8773V20.6319Z" fill="#262626"/>
<path d="M68.4512 43.457C67.2569 42.1819 66.5898 40.4812 66.5898 38.7117C66.5898 36.9422 67.2569 35.2414 68.4512 33.9663C69.0679 33.3452 69.8007 32.8588 70.6055 32.5365C71.4102 32.2142 72.2701 32.0628 73.1333 32.0913C74.3101 32.0708 75.4716 32.3666 76.5028 32.9495V34.9688C75.5046 34.3029 74.3374 33.9542 73.1473 33.9663C72.2393 33.9895 71.3576 34.2839 70.6098 34.8136C69.862 35.3432 69.2806 36.0852 68.9366 36.9488C68.5926 37.8125 68.5009 38.7603 68.6728 39.6766C68.8446 40.5929 69.2725 41.4379 69.9043 42.1084C70.3402 42.5492 70.8585 42.8946 71.428 43.1239C71.9974 43.3532 72.6062 43.4616 73.2175 43.4426C74.4975 43.4879 75.7531 43.0749 76.7695 42.2743V44.3008C75.677 44.9968 74.4115 45.3526 73.1263 45.3248C72.2654 45.3471 71.4089 45.1935 70.6063 44.8729C69.8037 44.5522 69.0712 44.0709 68.4512 43.457Z" fill="#262626"/>
<path d="M80.5933 43.9549C80.1656 43.5162 79.8263 42.9951 79.5948 42.4215C79.3633 41.848 79.2441 41.2332 79.2441 40.6122C79.2441 39.9913 79.3633 39.3765 79.5948 38.8029C79.8263 38.2294 80.1656 37.7083 80.5933 37.2696C81.5292 36.3883 82.7527 35.8994 84.0224 35.8994C85.292 35.8994 86.5155 36.3883 87.4515 37.2696C87.8904 37.6977 88.2375 38.2151 88.4708 38.7888C88.7041 39.3624 88.8183 39.9798 88.8063 40.6014C88.8175 41.2255 88.7036 41.8452 88.4718 42.4221C88.2399 42.999 87.895 43.5208 87.4585 43.9549C86.5203 44.8316 85.2976 45.3174 84.0294 45.3174C82.7612 45.3174 81.5385 44.8316 80.6003 43.9549H80.5933ZM86.0686 42.7289C86.5912 42.1534 86.8818 41.3957 86.8818 40.6086C86.8818 39.8216 86.5912 39.0639 86.0686 38.4884C85.8053 38.2088 85.4885 37.9882 85.1381 37.8405C84.7878 37.6928 84.4115 37.6212 84.0329 37.6302C83.264 37.6302 82.5266 37.944 81.9829 38.5026C81.4392 39.0611 81.1338 39.8187 81.1338 40.6086C81.1338 41.3986 81.4392 42.1561 81.9829 42.7147C82.5266 43.2733 83.264 43.5871 84.0329 43.5871C84.4115 43.596 84.7878 43.5244 85.1381 43.3767C85.4885 43.229 85.8053 43.0085 86.0686 42.7289Z" fill="#262626"/>
<path d="M93.723 45.0798H91.8066V36.1372H93.723V37.32C94.1224 36.8568 94.6147 36.4881 95.1661 36.2391C95.7175 35.9901 96.3148 35.8668 96.917 35.8776C98.9737 35.8776 100.146 37.2839 100.146 39.5917V45.0582H98.2296V40.0099C98.2296 38.2647 97.3241 37.695 96.1869 37.695C95.6938 37.7151 95.2126 37.8567 94.7839 38.1077C94.3551 38.3587 93.9913 38.7118 93.723 39.1373V45.0798Z" fill="#262626"/>
<path d="M103.047 44.4091V42.5485C104.093 43.2729 105.331 43.6482 106.592 43.623C107.799 43.623 108.508 43.2264 108.508 42.5701C108.508 42.2239 108.298 42.022 107.975 41.8489C107.706 41.7363 107.429 41.6447 107.146 41.5749L106.065 41.3008C104.079 40.796 103.138 40.0676 103.138 38.5171C103.138 36.9666 104.5 35.892 106.823 35.892C107.943 35.8319 109.056 36.1021 110.031 36.6709V38.4738C109.079 37.8984 107.998 37.5854 106.894 37.5652C105.707 37.5652 105.104 37.969 105.104 38.546C105.104 38.8921 105.335 39.094 105.658 39.2671C105.929 39.3745 106.206 39.466 106.487 39.5412L107.497 39.7575C109.484 40.2119 110.481 41.1999 110.481 42.5845C110.481 44.2 108.95 45.2962 106.683 45.2962C105.415 45.3435 104.159 45.0369 103.047 44.4091Z" fill="#262626"/>
<path d="M119.806 36.1377H121.715V45.0803H119.806V43.8831C119.405 44.344 118.912 44.7112 118.361 44.96C117.81 45.2088 117.214 45.3334 116.612 45.3255C114.555 45.3255 113.383 43.9264 113.383 41.6114V36.1377H115.299V41.1859C115.299 42.9384 116.205 43.5009 117.335 43.5009C117.829 43.4819 118.312 43.3409 118.742 43.0898C119.172 42.8388 119.537 42.485 119.806 42.0585V36.1377Z" fill="#262626"/>
<path d="M125.312 42.9667V32.3438H127.229V42.4402C127.229 43.1614 127.545 43.5364 128.184 43.5364C128.428 43.5368 128.67 43.4749 128.886 43.3561V45.0508C128.446 45.2571 127.965 45.3559 127.482 45.3393C126.26 45.3249 125.312 44.6614 125.312 42.9667Z" fill="#262626"/>
<path d="M132.329 37.8684H130.469V36.1376H132.329V33.5342H134.245V36.1376H136.997V37.8684H134.245V42.0729C134.245 43.097 134.688 43.5152 135.614 43.5152C136.072 43.5201 136.523 43.4059 136.927 43.1835V44.8783C136.337 45.2168 135.663 45.3698 134.989 45.3182C133.361 45.3182 132.329 44.3879 132.329 42.6426V37.8684Z" fill="#262626"/>
<path d="M139.987 33.2958C139.982 33.0514 140.049 32.8111 140.178 32.6057C140.307 32.4002 140.493 32.2388 140.711 32.1419C140.93 32.0451 141.171 32.0171 141.405 32.0616C141.639 32.1062 141.855 32.2212 142.025 32.392C142.196 32.5629 142.313 32.7819 142.362 33.0212C142.41 33.2605 142.389 33.5093 142.3 33.736C142.211 33.9627 142.058 34.1571 141.861 34.2945C141.664 34.4318 141.432 34.5059 141.194 34.5074C141.037 34.5103 140.881 34.4811 140.735 34.4216C140.589 34.3621 140.456 34.2734 140.344 34.1607C140.232 34.048 140.142 33.9135 140.081 33.7651C140.019 33.6166 139.987 33.4571 139.987 33.2958ZM140.232 45.0798V36.1373H142.156V45.0798H140.232Z" fill="#262626"/>
<path d="M147.844 45.0798H145.928V36.1372H147.844V37.32C148.244 36.8568 148.736 36.4881 149.287 36.2391C149.839 35.9901 150.436 35.8668 151.038 35.8776C153.095 35.8776 154.26 37.2839 154.26 39.5917V45.0582H152.351V40.0099C152.351 38.2647 151.445 37.695 150.308 37.695C149.815 37.7151 149.334 37.8567 148.905 38.1077C148.476 38.3587 148.112 38.7118 147.844 39.1373V45.0798Z" fill="#262626"/>
<path d="M164.412 36.1373H166.321V44.2794C166.362 44.9148 166.257 45.5513 166.013 46.1367C165.769 46.7221 165.393 47.2397 164.917 47.6473C163.934 48.4451 162.708 48.8591 161.456 48.8156C160.273 48.8557 159.1 48.5799 158.052 48.0151V46.2122C159.017 46.8015 160.123 47.1036 161.246 47.0848C163.092 47.0848 164.44 46.2266 164.44 44.3155V43.6448C164.064 44.1101 163.588 44.479 163.05 44.7219C162.511 44.9648 161.924 45.075 161.337 45.0438C160.768 45.0628 160.202 44.9539 159.678 44.7247C159.154 44.4955 158.685 44.1515 158.304 43.7169C157.508 42.8321 157.079 41.6622 157.111 40.4572C157.079 39.2608 157.508 38.0998 158.304 37.2263C158.686 36.7928 159.155 36.4496 159.679 36.2205C160.202 35.9914 160.768 35.8818 161.337 35.8994C161.926 35.8632 162.514 35.972 163.054 36.2166C163.594 36.4611 164.069 36.8345 164.44 37.3056L164.412 36.1373ZM164.412 41.7841V39.1807C164.161 38.7 163.786 38.3003 163.327 38.0264C162.868 37.7526 162.345 37.6154 161.814 37.6302C161.443 37.6197 161.073 37.6871 160.728 37.8285C160.383 37.9699 160.069 38.1821 159.807 38.4523C159.292 38.9915 159.004 39.7165 159.004 40.4716C159.004 41.2267 159.292 41.9517 159.807 42.4909C160.069 42.7611 160.383 42.9733 160.728 43.1147C161.073 43.2561 161.443 43.3236 161.814 43.313C162.341 43.3243 162.862 43.1879 163.319 42.9186C163.777 42.6492 164.154 42.2571 164.412 41.7841Z" fill="#262626"/>
<path d="M5.63228 33.9309C8.69112 33.9309 11.1708 31.3834 11.1708 28.2408C11.1708 25.0983 8.69112 22.5508 5.63228 22.5508C2.57343 22.5508 0.09375 25.0983 0.09375 28.2408C0.09375 31.3834 2.57343 33.9309 5.63228 33.9309Z" fill="#262626"/>
<path d="M27.7924 56.6985C30.8513 56.6985 33.331 54.151 33.331 51.0084C33.331 47.8659 30.8513 45.3184 27.7924 45.3184C24.7336 45.3184 22.2539 47.8659 22.2539 51.0084C22.2539 54.151 24.7336 56.6985 27.7924 56.6985Z" fill="#262626"/>
<path d="M27.7924 11.1555C30.8513 11.1555 33.331 8.608 33.331 5.46546C33.331 2.32292 30.8513 -0.224609 27.7924 -0.224609C24.7336 -0.224609 22.2539 2.32292 22.2539 5.46546C22.2539 8.608 24.7336 11.1555 27.7924 11.1555Z" fill="#262626"/>
<path d="M12.1752 50.0051C15.2341 50.0051 17.7138 47.4576 17.7138 44.3151C17.7138 41.1725 15.2341 38.625 12.1752 38.625C9.1164 38.625 6.63672 41.1725 6.63672 44.3151C6.63672 47.4576 9.1164 50.0051 12.1752 50.0051Z" fill="#262626"/>
<path d="M43.517 17.8049C46.5759 17.8049 49.0556 15.2574 49.0556 12.1149C49.0556 8.97233 46.5759 6.4248 43.517 6.4248C40.4582 6.4248 37.9785 8.97233 37.9785 12.1149C37.9785 15.2574 40.4582 17.8049 43.517 17.8049Z" fill="#262626"/>
<path d="M12.1752 17.8049C15.2341 17.8049 17.7138 15.2574 17.7138 12.1149C17.7138 8.97233 15.2341 6.4248 12.1752 6.4248C9.1164 6.4248 6.63672 8.97233 6.63672 12.1149C6.63672 15.2574 9.1164 17.8049 12.1752 17.8049Z" fill="#262626"/>
<path d="M43.517 50.0051C46.5759 50.0051 49.0556 47.4576 49.0556 44.3151C49.0556 41.1725 46.5759 38.625 43.517 38.625C40.4582 38.625 37.9785 41.1725 37.9785 44.3151C37.9785 47.4576 40.4582 50.0051 43.517 50.0051Z" fill="#262626"/>
</g>
<defs>
<clipPath id="clip0_401_4933">
<rect width="167" height="57" fill="white"/>
</clipPath>
</defs>
</svg>
