<svg width="132" height="45" viewBox="0 0 132 45" fill="none" xmlns="http://www.w3.org/2000/svg">
<g clip-path="url(#clip0_401_5410)">
<path d="M52.5469 17.7399V7.67383H54.0868V17.7399H52.5469Z" fill="white"/>
<path d="M60.6631 17.7968L56.4531 7.67383H58.1593L61.4054 15.6162L64.6515 7.67383H66.3133L62.12 17.7968H60.6631Z" fill="white"/>
<path d="M68.5938 17.7405V7.67437H72.0503C73.4612 7.61661 74.839 8.12266 75.8947 9.08636C76.3697 9.55644 76.7475 10.1202 77.0056 10.7438C77.2637 11.3675 77.3967 12.0382 77.3967 12.716C77.3967 13.3937 77.2637 14.0644 77.0056 14.6881C76.7475 15.3117 76.3697 15.8755 75.8947 16.3455C74.8382 17.3062 73.4595 17.8065 72.0503 17.7405H68.5938ZM70.1337 16.2886H71.9063C72.9472 16.3558 73.9737 16.0116 74.7757 15.3264C75.1226 14.993 75.3949 14.5861 75.5738 14.1339C75.7526 13.6817 75.8338 13.195 75.8116 12.7074C75.8337 12.2207 75.7525 11.7348 75.5736 11.2835C75.3947 10.8323 75.1225 10.4264 74.7757 10.0941C73.9742 9.40739 72.9479 9.06118 71.9063 9.12621H70.1337V16.2886Z" fill="white"/>
<path d="M54.0157 34.3086C53.0733 33.302 52.5469 31.9593 52.5469 30.5623C52.5469 29.1653 53.0733 27.8226 54.0157 26.816C54.5024 26.3256 55.0807 25.9416 55.7157 25.6872C56.3507 25.4328 57.0293 25.3132 57.7105 25.3357C58.6391 25.3195 59.5557 25.5531 60.3694 26.0132V27.6074C59.5817 27.0817 58.6607 26.8064 57.7216 26.816C57.0051 26.8343 56.3092 27.0667 55.7191 27.4849C55.129 27.903 54.6702 28.4888 54.3987 29.1706C54.1273 29.8524 54.055 30.6007 54.1906 31.3241C54.3262 32.0475 54.6639 32.7146 55.1624 33.2439C55.5064 33.5919 55.9154 33.8646 56.3648 34.0457C56.8141 34.2267 57.2945 34.3123 57.777 34.2972C58.7871 34.333 59.7779 34.007 60.5799 33.3749V34.9747C59.7178 35.5243 58.7192 35.8051 57.705 35.7832C57.0257 35.8008 56.3497 35.6796 55.7164 35.4264C55.083 35.1733 54.505 34.7933 54.0157 34.3086Z" fill="white"/>
<path d="M63.5959 34.7014C63.2584 34.355 62.9906 33.9437 62.808 33.4908C62.6253 33.038 62.5312 32.5526 62.5312 32.0624C62.5312 31.5722 62.6253 31.0869 62.808 30.6341C62.9906 30.1812 63.2584 29.7699 63.5959 29.4235C64.3345 28.7278 65.3 28.3418 66.3019 28.3418C67.3038 28.3418 68.2693 28.7278 69.0079 29.4235C69.3542 29.7615 69.6282 30.1699 69.8123 30.6229C69.9964 31.0758 70.0865 31.5632 70.077 32.0539C70.0859 32.5466 69.996 33.0358 69.813 33.4913C69.6301 33.9467 69.3579 34.3586 69.0134 34.7014C68.2731 35.3935 67.3082 35.777 66.3074 35.777C65.3066 35.777 64.3418 35.3935 63.6014 34.7014H63.5959ZM67.9166 33.7335C68.329 33.2791 68.5583 32.6809 68.5583 32.0596C68.5583 31.4383 68.329 30.8401 67.9166 30.3857C67.7088 30.165 67.4588 29.9909 67.1824 29.8743C66.9059 29.7577 66.6089 29.7011 66.3102 29.7082C65.7034 29.7082 65.1215 29.9559 64.6925 30.3969C64.2634 30.8379 64.0224 31.436 64.0224 32.0596C64.0224 32.6832 64.2634 33.2813 64.6925 33.7223C65.1215 34.1633 65.7034 34.411 66.3102 34.411C66.6089 34.4181 66.9059 34.3616 67.1824 34.2449C67.4588 34.1283 67.7088 33.9542 67.9166 33.7335Z" fill="white"/>
<path d="M73.9576 35.5896H72.4453V28.5297H73.9576V29.4634C74.2728 29.0978 74.6613 28.8067 75.0964 28.6101C75.5315 28.4135 76.0028 28.3162 76.478 28.3247C78.1011 28.3247 79.0261 29.435 79.0261 31.2569V35.5725H77.5139V31.5871C77.5139 30.2093 76.7993 29.7595 75.9019 29.7595C75.5128 29.7754 75.1331 29.8872 74.7947 30.0853C74.4564 30.2835 74.1693 30.5622 73.9576 30.8982V35.5896Z" fill="white"/>
<path d="M81.3164 35.0596V33.5907C82.1417 34.1626 83.1186 34.4589 84.1138 34.439C85.0666 34.439 85.6261 34.1259 85.6261 33.6078C85.6261 33.3345 85.4599 33.1751 85.2051 33.0384C84.9928 32.9495 84.7743 32.8772 84.5514 32.8221L83.6984 32.6057C82.1307 32.2072 81.3884 31.6321 81.3884 30.408C81.3884 29.1839 82.4631 28.3356 84.2966 28.3356C85.1803 28.2881 86.0587 28.5015 86.8281 28.9505V30.3739C86.0766 29.9196 85.2237 29.6725 84.352 29.6565C83.4158 29.6565 82.9395 29.9753 82.9395 30.4308C82.9395 30.7041 83.1223 30.8635 83.3771 31.0002C83.5908 31.085 83.809 31.1572 84.0307 31.2165L84.8284 31.3873C86.3961 31.746 87.1827 32.526 87.1827 33.6192C87.1827 34.8945 85.9751 35.7599 84.1858 35.7599C83.1854 35.7973 82.1937 35.5553 81.3164 35.0596Z" fill="white"/>
<path d="M94.5451 28.5293H96.0519V35.5892H94.5451V34.6441C94.2286 35.008 93.8398 35.2979 93.405 35.4943C92.9703 35.6907 92.4996 35.7891 92.0247 35.7828C90.4017 35.7828 89.4766 34.6783 89.4766 32.8506V28.5293H90.9888V32.5147C90.9888 33.8983 91.7034 34.3423 92.5953 34.3423C92.9853 34.3273 93.3662 34.216 93.7055 34.0178C94.0449 33.8196 94.3329 33.5404 94.5451 33.2036V28.5293Z" fill="white"/>
<path d="M98.8867 33.9207V25.5342H100.399V33.5051C100.399 34.0744 100.648 34.3705 101.152 34.3705C101.346 34.3708 101.536 34.3219 101.706 34.2281V35.5661C101.359 35.7289 100.98 35.8069 100.598 35.7938C99.6345 35.7824 98.8867 35.2586 98.8867 33.9207Z" fill="white"/>
<path d="M104.425 29.8964H102.957V28.53H104.425V26.4746H105.937V28.53H108.109V29.8964H105.937V33.2157C105.937 34.0242 106.286 34.3544 107.017 34.3544C107.379 34.3582 107.735 34.2681 108.053 34.0925V35.4305C107.588 35.6978 107.056 35.8185 106.524 35.7778C105.239 35.7778 104.425 35.0433 104.425 33.6655V29.8964Z" fill="white"/>
<path d="M110.469 26.2865C110.466 26.0935 110.518 25.9039 110.62 25.7417C110.722 25.5795 110.868 25.452 111.041 25.3756C111.213 25.2991 111.404 25.277 111.589 25.3122C111.773 25.3473 111.944 25.4381 112.078 25.573C112.212 25.7079 112.305 25.8808 112.343 26.0697C112.382 26.2586 112.365 26.4551 112.294 26.6341C112.224 26.813 112.103 26.9665 111.948 27.0749C111.793 27.1834 111.609 27.2419 111.422 27.2431C111.298 27.2453 111.175 27.2223 111.06 27.1753C110.944 27.1283 110.84 27.0583 110.751 26.9693C110.662 26.8804 110.592 26.7742 110.543 26.657C110.495 26.5398 110.47 26.4139 110.469 26.2865ZM110.663 35.5897V28.5298H112.181V35.5897H110.663Z" fill="white"/>
<path d="M116.669 35.5896H115.156V28.5297H116.669V29.4634C116.984 29.0978 117.372 28.8067 117.807 28.6101C118.242 28.4135 118.714 28.3162 119.189 28.3247C120.812 28.3247 121.732 29.435 121.732 31.2569V35.5725H120.225V31.5871C120.225 30.2093 119.51 29.7595 118.613 29.7595C118.224 29.7754 117.844 29.8872 117.506 30.0853C117.167 30.2835 116.88 30.5622 116.669 30.8982V35.5896Z" fill="white"/>
<path d="M129.743 28.5292H131.25V34.9571C131.282 35.4587 131.199 35.9612 131.006 36.4234C130.814 36.8855 130.518 37.2942 130.142 37.616C129.366 38.2458 128.399 38.5727 127.411 38.5383C126.477 38.57 125.551 38.3523 124.724 37.9063V36.483C125.486 36.9483 126.358 37.1868 127.245 37.1719C128.701 37.1719 129.765 36.4944 129.765 34.9856V34.4561C129.469 34.8235 129.093 35.1147 128.668 35.3064C128.243 35.4982 127.78 35.5852 127.317 35.5606C126.867 35.5756 126.421 35.4896 126.007 35.3087C125.594 35.1277 125.224 34.8562 124.923 34.513C124.295 33.8145 123.957 32.8909 123.982 31.9396C123.957 30.995 124.295 30.0784 124.923 29.3889C125.225 29.0466 125.595 28.7757 126.008 28.5948C126.421 28.414 126.868 28.3275 127.317 28.3413C127.781 28.3128 128.246 28.3986 128.672 28.5917C129.097 28.7848 129.472 29.0796 129.765 29.4515L129.743 28.5292ZM129.743 32.9872V30.9318C129.545 30.5523 129.249 30.2368 128.887 30.0206C128.525 29.8044 128.112 29.696 127.693 29.7077C127.4 29.6994 127.108 29.7527 126.836 29.8643C126.564 29.9759 126.316 30.1435 126.109 30.3568C125.703 30.7825 125.476 31.3548 125.476 31.951C125.476 32.5471 125.703 33.1194 126.109 33.5451C126.316 33.7584 126.564 33.926 126.836 34.0376C127.108 34.1492 127.4 34.2025 127.693 34.1942C128.109 34.203 128.52 34.0954 128.881 33.8828C129.242 33.6701 129.54 33.3605 129.743 32.9872Z" fill="white"/>
<path d="M4.44483 26.788C6.85865 26.788 8.81544 24.7768 8.81544 22.2959C8.81544 19.8149 6.85865 17.8037 4.44483 17.8037C2.03101 17.8037 0.0742188 19.8149 0.0742188 22.2959C0.0742188 24.7768 2.03101 26.788 4.44483 26.788Z" fill="white"/>
<path d="M21.9331 44.7617C24.3469 44.7617 26.3037 42.7505 26.3037 40.2695C26.3037 37.7886 24.3469 35.7773 21.9331 35.7773C19.5193 35.7773 17.5625 37.7886 17.5625 40.2695C17.5625 42.7505 19.5193 44.7617 21.9331 44.7617Z" fill="white"/>
<path d="M21.9331 8.80658C24.3469 8.80658 26.3037 6.79537 26.3037 4.31442C26.3037 1.83347 24.3469 -0.177734 21.9331 -0.177734C19.5193 -0.177734 17.5625 1.83347 17.5625 4.31442C17.5625 6.79537 19.5193 8.80658 21.9331 8.80658Z" fill="white"/>
<path d="M9.60499 39.4775C12.0188 39.4775 13.9756 37.4663 13.9756 34.9853C13.9756 32.5044 12.0188 30.4932 9.60499 30.4932C7.19117 30.4932 5.23438 32.5044 5.23438 34.9853C5.23438 37.4663 7.19117 39.4775 9.60499 39.4775Z" fill="white"/>
<path d="M34.3394 14.0566C36.7532 14.0566 38.71 12.0454 38.71 9.56442C38.71 7.08347 36.7532 5.07227 34.3394 5.07227C31.9255 5.07227 29.9688 7.08347 29.9688 9.56442C29.9688 12.0454 31.9255 14.0566 34.3394 14.0566Z" fill="white"/>
<path d="M9.60499 14.0566C12.0188 14.0566 13.9756 12.0454 13.9756 9.56442C13.9756 7.08347 12.0188 5.07227 9.60499 5.07227C7.19117 5.07227 5.23438 7.08347 5.23438 9.56442C5.23438 12.0454 7.19117 14.0566 9.60499 14.0566Z" fill="white"/>
<path d="M34.3394 39.4775C36.7532 39.4775 38.71 37.4663 38.71 34.9853C38.71 32.5044 36.7532 30.4932 34.3394 30.4932C31.9255 30.4932 29.9688 32.5044 29.9688 34.9853C29.9688 37.4663 31.9255 39.4775 34.3394 39.4775Z" fill="white"/>
</g>
<defs>
<clipPath id="clip0_401_5410">
<rect width="132" height="45" fill="white"/>
</clipPath>
</defs>
</svg>
