<svg width="28" height="28" viewBox="0 0 28 28" fill="none" xmlns="http://www.w3.org/2000/svg">
<g clip-path="url(#clip0_318_5703)">
<path fill-rule="evenodd" clip-rule="evenodd" d="M21.9534 24.4713H4.22266C4.04164 24.4713 3.89453 24.3248 3.89453 24.1438V3.85742C3.89453 3.67641 4.04164 3.5293 4.22266 3.5293H21.9534C22.1345 3.5293 22.2816 3.67641 22.2816 3.85742V11.377C22.2816 11.4841 22.2291 11.5842 22.1416 11.6455L20.8553 12.5462C20.7919 12.5905 20.7153 12.6107 20.6387 12.6047L19.3027 12.4871L18.7356 13.7028C18.7034 13.7728 18.647 13.8286 18.5776 13.8614L17.3619 14.428L17.4789 15.764C17.4855 15.8411 17.4652 15.9177 17.4209 15.9805L16.6515 17.0792L17.4209 18.1779C17.4647 18.2408 17.4855 18.3173 17.4789 18.3945L17.3619 19.7305L18.577 20.297C18.647 20.3298 18.7034 20.3856 18.7356 20.4556L19.3027 21.6708L20.6387 21.5543C20.7153 21.5477 20.7919 21.568 20.8553 21.6123L22.1416 22.513C22.2291 22.5742 22.2816 22.6743 22.2816 22.7815V24.1438C22.2816 24.3248 22.1345 24.4713 21.9534 24.4713ZM4.55023 23.8156H21.6259V22.9521L20.577 22.2177L19.131 22.344C18.9937 22.3555 18.8636 22.2811 18.8056 22.1559L18.192 20.8406L16.8768 20.2276C16.7521 20.1691 16.6766 20.0395 16.6887 19.9016L16.815 18.4563L15.9827 17.2673C15.9039 17.1541 15.9039 17.0038 15.9827 16.8911L16.815 15.7022L16.6887 14.2568C16.6766 14.1195 16.7521 13.9894 16.8768 13.9309L18.192 13.3178L18.8056 12.002C18.8636 11.8773 18.9937 11.8019 19.131 11.8145L20.577 11.9408L21.6259 11.2063V4.185H4.55023V23.8156Z" fill="#869DA8"/>
<path fill-rule="evenodd" clip-rule="evenodd" d="M19.2122 7.75043H6.9682C6.78719 7.75043 6.64062 7.60387 6.64062 7.42285C6.64062 7.24184 6.78719 7.09473 6.9682 7.09473H19.2122C19.3932 7.09473 19.5398 7.24184 19.5398 7.42285C19.5398 7.60387 19.3932 7.75043 19.2122 7.75043Z" fill="#869DA8"/>
<path fill-rule="evenodd" clip-rule="evenodd" d="M19.2122 11.0395H6.9682C6.78719 11.0395 6.64062 10.8924 6.64062 10.7114C6.64062 10.5304 6.78719 10.3838 6.9682 10.3838H19.2122C19.3932 10.3838 19.5398 10.5304 19.5398 10.7114C19.5398 10.8924 19.3932 11.0395 19.2122 11.0395Z" fill="#869DA8"/>
<path fill-rule="evenodd" clip-rule="evenodd" d="M17.5059 14.3286H6.96875C6.78773 14.3286 6.64062 14.1814 6.64062 14.0004C6.64062 13.8194 6.78773 13.6729 6.96875 13.6729H17.5059C17.687 13.6729 17.8335 13.8194 17.8335 14.0004C17.8335 14.1814 17.687 14.3286 17.5059 14.3286Z" fill="#869DA8"/>
<path fill-rule="evenodd" clip-rule="evenodd" d="M16.4007 17.6166H6.96875C6.78773 17.6166 6.64062 17.4701 6.64062 17.2891C6.64062 17.108 6.78773 16.9609 6.96875 16.9609H16.4007C16.5817 16.9609 16.7283 17.108 16.7283 17.2891C16.7283 17.4701 16.5817 17.6166 16.4007 17.6166Z" fill="#869DA8"/>
<path fill-rule="evenodd" clip-rule="evenodd" d="M18.4066 20.9057H6.96875C6.78773 20.9057 6.64062 20.7591 6.64062 20.5781C6.64062 20.3971 6.78773 20.25 6.96875 20.25H18.4066C18.5877 20.25 18.7342 20.3971 18.7342 20.5781C18.7342 20.7591 18.5877 20.9057 18.4066 20.9057Z" fill="#869DA8"/>
<path fill-rule="evenodd" clip-rule="evenodd" d="M10.4825 27.545C10.4546 27.545 10.4256 27.5412 10.3977 27.5336C10.3141 27.5111 10.2424 27.4564 10.1987 27.381L8.42406 24.307C8.36555 24.2058 8.36555 24.0806 8.42406 23.9794C8.48258 23.8782 8.59086 23.8154 8.70789 23.8154H15.8069C15.9551 23.8154 16.0852 23.9149 16.1235 24.0587C16.1618 24.202 16.0995 24.3529 15.9709 24.4273L10.6466 27.5007C10.5962 27.5303 10.5399 27.545 10.4825 27.545ZM9.27609 24.4711L10.6028 26.769L14.5835 24.4711H9.27609ZM4.22351 16.7032C4.10812 16.7032 3.9993 16.6425 3.93969 16.5392L0.0557794 9.81262C-0.0350018 9.65566 0.0191388 9.45551 0.175545 9.36473L4.05945 7.12254C4.16117 7.06402 4.28586 7.06402 4.38703 7.12254C4.48875 7.18105 4.55109 7.28933 4.55109 7.40637V16.3757C4.55109 16.5239 4.45156 16.6535 4.30828 16.6923C4.27984 16.6994 4.2514 16.7032 4.22351 16.7032ZM0.787498 9.76887L3.89539 15.1523V7.97402L0.787498 9.76887ZM17.471 4.18473C17.4705 4.18473 17.4699 4.18473 17.4699 4.18473H10.3709C10.2227 4.18473 10.0931 4.08519 10.0543 3.94191C10.016 3.79863 10.0789 3.64715 10.2074 3.57332L15.5312 0.498788C15.6067 0.455585 15.6959 0.443553 15.7801 0.466522C15.8637 0.488944 15.9354 0.543631 15.9791 0.6191L17.7412 3.67176C17.7778 3.72426 17.7986 3.78824 17.7986 3.85715C17.7986 4.03816 17.652 4.18473 17.471 4.18473ZM11.5943 3.52902H16.9023L15.575 1.23051L11.5943 3.52902Z" fill="#869DA8"/>
<path fill-rule="evenodd" clip-rule="evenodd" d="M21.2263 18.7424C21.1426 18.7424 21.0584 18.7107 20.9944 18.6467C20.8664 18.5187 20.8664 18.3109 20.9944 18.1829L23.6654 15.512C23.7933 15.384 24.0011 15.384 24.1286 15.512C24.2571 15.6405 24.2571 15.8478 24.1286 15.9757L21.4582 18.6467C21.3942 18.7107 21.3105 18.7424 21.2263 18.7424Z" fill="#869DA8"/>
<path fill-rule="evenodd" clip-rule="evenodd" d="M21.2223 18.7423C21.1386 18.7423 21.0544 18.7105 20.9904 18.6466L19.7835 17.4396C19.6555 17.3116 19.6555 17.1038 19.7835 16.9759C19.9114 16.8479 20.1193 16.8479 20.2472 16.9759L21.4542 18.1828C21.5821 18.3108 21.5821 18.5186 21.4542 18.6466C21.3902 18.7105 21.3065 18.7423 21.2223 18.7423Z" fill="#869DA8"/>
<path fill-rule="evenodd" clip-rule="evenodd" d="M21.9562 20.9221C19.837 20.9221 18.1133 19.1978 18.1133 17.0792C18.1133 14.9601 19.837 13.2363 21.9562 13.2363C24.0748 13.2363 25.7985 14.9601 25.7985 17.0792C25.7985 19.1984 24.0748 20.9221 21.9562 20.9221ZM21.9562 13.892C20.1985 13.892 18.7684 15.3221 18.7684 17.0792C18.7684 18.8369 20.1985 20.2664 21.9562 20.2664C23.7133 20.2664 25.1428 18.8369 25.1428 17.0792C25.1428 15.3221 23.7133 13.892 21.9562 13.892Z" fill="#869DA8"/>
<path fill-rule="evenodd" clip-rule="evenodd" d="M21.9562 23.1095C21.89 23.1095 21.8244 23.0898 21.768 23.0499L20.5791 22.2175L19.1332 22.3438C18.9959 22.3553 18.8658 22.281 18.8078 22.1563L18.1942 20.8405L16.879 20.2274C16.7543 20.1689 16.6788 20.0388 16.6909 19.9015L16.8172 18.4561L15.9848 17.2672C15.9061 17.154 15.9061 17.0036 15.9848 16.891L16.8172 15.7021L16.6909 14.2567C16.6788 14.1194 16.7543 13.9892 16.879 13.9307L18.1942 13.3177L18.8078 12.0019C18.8658 11.8772 18.9959 11.8017 19.1332 11.8143L20.5791 11.9406L21.768 11.1083C21.8807 11.029 22.0311 11.029 22.1438 11.1083L23.3327 11.9406L24.7786 11.8143C24.9164 11.8023 25.046 11.8772 25.104 12.0019L25.7176 13.3177L27.0328 13.9307C27.158 13.9892 27.233 14.1194 27.2209 14.2567L27.0946 15.7021L27.927 16.891C28.0057 17.0036 28.0057 17.154 27.927 17.2672L27.0946 18.4561L27.2209 19.9015C27.233 20.0388 27.158 20.1689 27.0328 20.2274L25.7176 20.8405L25.104 22.1557C25.046 22.281 24.917 22.3553 24.7786 22.3438L23.3327 22.2175L22.1438 23.0499C22.0874 23.0892 22.0218 23.1095 21.9562 23.1095ZM20.6694 21.5525C20.7366 21.5525 20.8023 21.5733 20.8575 21.6121L21.9562 22.381L23.0543 21.6121C23.1172 21.5678 23.1937 21.5476 23.2709 21.5542L24.6069 21.6706L25.174 20.4555C25.2062 20.3855 25.2626 20.3292 25.332 20.2969L26.5477 19.7303L26.4307 18.3943C26.4241 18.3172 26.4444 18.2406 26.4887 18.1778L27.2581 17.0791L26.4887 15.9804C26.4444 15.9175 26.4241 15.841 26.4307 15.7638L26.5477 14.4278L25.332 13.8613C25.2626 13.829 25.2062 13.7727 25.174 13.7027L24.6069 12.4875L23.2709 12.604C23.1937 12.6111 23.1172 12.5903 23.0543 12.546L21.9562 11.7771L20.8575 12.546C20.7941 12.5903 20.7175 12.6111 20.6409 12.604L19.3049 12.4875L18.7378 13.7027C18.7055 13.7727 18.6492 13.829 18.5798 13.8613L17.3641 14.4278L17.4811 15.7638C17.4877 15.841 17.4674 15.9175 17.4231 15.9804L16.6537 17.0791L17.4231 18.1778C17.4669 18.2406 17.4877 18.3172 17.4811 18.3943L17.3641 19.7303L18.5798 20.2969C18.6492 20.3297 18.7055 20.3855 18.7378 20.4555L19.3049 21.6706L20.6409 21.5542C20.6502 21.5531 20.6601 21.5525 20.6694 21.5525Z" fill="#869DA8"/>
</g>
<defs>
<clipPath id="clip0_318_5703">
<rect width="28" height="28" fill="white"/>
</clipPath>
</defs>
</svg>
